<mxfile host="65bd71144e">
    <diagram id="vc20l7_UrDE88GMVnpH0" name="PÃ¡gina-1">
        <mxGraphModel dx="662" dy="411" grid="1" gridSize="10" guides="1" tooltips="1" connect="1" arrows="1" fold="1" page="1" pageScale="1" pageWidth="1169" pageHeight="827" math="0" shadow="0">
            <root>
                <mxCell id="0"/>
                <mxCell id="1" parent="0"/>
                <mxCell id="8" value="" style="edgeStyle=none;html=1;" edge="1" parent="1" source="2" target="7">
                    <mxGeometry relative="1" as="geometry"/>
                </mxCell>
                <mxCell id="2" value="INICIO&amp;nbsp;" style="ellipse;whiteSpace=wrap;html=1;fillColor=#000099;" vertex="1" parent="1">
                    <mxGeometry x="250" y="10" width="120" height="40" as="geometry"/>
                </mxCell>
                <mxCell id="10" value="" style="edgeStyle=none;html=1;" edge="1" parent="1" source="7" target="9">
                    <mxGeometry relative="1" as="geometry"/>
                </mxCell>
                <mxCell id="7" value="X,Y&amp;nbsp;" style="shape=parallelogram;perimeter=parallelogramPerimeter;whiteSpace=wrap;html=1;fixedSize=1;fillColor=#6666FF;" vertex="1" parent="1">
                    <mxGeometry x="250" y="90" width="120" height="60" as="geometry"/>
                </mxCell>
                <mxCell id="9" value="X&amp;gt;Y&amp;nbsp;" style="rhombus;whiteSpace=wrap;html=1;fillColor=#9933FF;" vertex="1" parent="1">
                    <mxGeometry x="270" y="200" width="80" height="80" as="geometry"/>
                </mxCell>
                <mxCell id="17" value="" style="endArrow=none;html=1;" edge="1" parent="1">
                    <mxGeometry width="50" height="50" relative="1" as="geometry">
                        <mxPoint x="270" y="240" as="sourcePoint"/>
                        <mxPoint x="170" y="240" as="targetPoint"/>
                    </mxGeometry>
                </mxCell>
                <mxCell id="18" value="" style="endArrow=none;html=1;" edge="1" parent="1">
                    <mxGeometry width="50" height="50" relative="1" as="geometry">
                        <mxPoint x="450" y="239.5" as="sourcePoint"/>
                        <mxPoint x="350" y="239.5" as="targetPoint"/>
                    </mxGeometry>
                </mxCell>
                <mxCell id="19" value="" style="endArrow=classic;html=1;" edge="1" parent="1">
                    <mxGeometry width="50" height="50" relative="1" as="geometry">
                        <mxPoint x="170" y="240" as="sourcePoint"/>
                        <mxPoint x="170" y="320" as="targetPoint"/>
                    </mxGeometry>
                </mxCell>
                <mxCell id="21" value="" style="endArrow=classic;html=1;" edge="1" parent="1">
                    <mxGeometry width="50" height="50" relative="1" as="geometry">
                        <mxPoint x="450" y="240" as="sourcePoint"/>
                        <mxPoint x="450" y="320" as="targetPoint"/>
                    </mxGeometry>
                </mxCell>
                <mxCell id="22" value="mayor = y" style="rounded=0;whiteSpace=wrap;html=1;fillColor=#66B2FF;" vertex="1" parent="1">
                    <mxGeometry x="110" y="320" width="120" height="60" as="geometry"/>
                </mxCell>
                <mxCell id="23" value="mayor = x&amp;nbsp;" style="rounded=0;whiteSpace=wrap;html=1;fillColor=#330066;" vertex="1" parent="1">
                    <mxGeometry x="390" y="320" width="120" height="60" as="geometry"/>
                </mxCell>
                <mxCell id="24" value="" style="endArrow=none;html=1;" edge="1" parent="1">
                    <mxGeometry width="50" height="50" relative="1" as="geometry">
                        <mxPoint x="169.5" y="480" as="sourcePoint"/>
                        <mxPoint x="169.5" y="380" as="targetPoint"/>
                    </mxGeometry>
                </mxCell>
                <mxCell id="25" value="" style="endArrow=none;html=1;" edge="1" parent="1">
                    <mxGeometry width="50" height="50" relative="1" as="geometry">
                        <mxPoint x="449.5" y="480" as="sourcePoint"/>
                        <mxPoint x="449.5" y="380" as="targetPoint"/>
                    </mxGeometry>
                </mxCell>
                <mxCell id="26" value="" style="endArrow=none;html=1;" edge="1" parent="1">
                    <mxGeometry width="50" height="50" relative="1" as="geometry">
                        <mxPoint x="450" y="480" as="sourcePoint"/>
                        <mxPoint x="169.5" y="480" as="targetPoint"/>
                    </mxGeometry>
                </mxCell>
                <mxCell id="27" value="" style="endArrow=classic;html=1;" edge="1" parent="1">
                    <mxGeometry width="50" height="50" relative="1" as="geometry">
                        <mxPoint x="300" y="480" as="sourcePoint"/>
                        <mxPoint x="300" y="520" as="targetPoint"/>
                    </mxGeometry>
                </mxCell>
                <mxCell id="30" value="" style="edgeStyle=none;html=1;" edge="1" parent="1" source="28" target="29">
                    <mxGeometry relative="1" as="geometry"/>
                </mxCell>
                <mxCell id="28" value="mayor&amp;nbsp;" style="shape=document;whiteSpace=wrap;html=1;boundedLbl=1;fillColor=#330033;" vertex="1" parent="1">
                    <mxGeometry x="240" y="520" width="120" height="80" as="geometry"/>
                </mxCell>
                <mxCell id="29" value="FIN&amp;nbsp;" style="ellipse;whiteSpace=wrap;html=1;fillColor=#660066;" vertex="1" parent="1">
                    <mxGeometry x="250" y="680" width="100" height="60" as="geometry"/>
                </mxCell>
            </root>
        </mxGraphModel>
    </diagram>
</mxfile>